# xmcd
#
# Track frame offsets:
#	150
#	26574
#	62492
#	75987
#	97052
#	119318
#	136956
#	152528
#	170584
#	188635
#	200139
#	214452
#	230829
#	244406
#	257539
#	272762
#	287705
#	297244
#	314396
#	329605
#
# Disc length: 4607 seconds
#
# Revision: 0
# Processed by: cddbd v1.5.1PL2 Copyright (c) Steve Scherf et al.
# Submitted via: EasyCDDAExtractor 9.1.3.1
#
DISCID=3211fd14
DTITLE=Various Artist - Dream Dance 32 CD 2
DYEAR=2004
DGENRE=Trance
TTITLE0=Above and Beyond - No One On Earth(Gabriel and Dresden Edit)
TTITLE1=DT8 Project - The Sun Is Shining(Down On Me)(Darren Tate Mix)
TTITLE2=Krid P - Connected Part 1(Club Cut)
TTITLE3=Brainbug - Nightmare(Sinister Strings Edit)
TTITLE4=Lagoon - Beam of Love(Original Mix Edit)
TTITLE5=The Age of Love - Age of Love(Marc et Claude Remix Edit)
TTITLE6=Tube-Tech - Riders On The Storm(Original Radio Mix)
TTITLE7=Ronski Speed - E.O.S.(Original Radio)
TTITLE8=Kleijten and Noord - Bleeding Heart
TTITLE9=Comanova - Wishfun Thinking(New Radio Edit)
TTITLE10=Tiesto feat.BT - Love Comes Again(Radio Edit)
TTITLE11=Agnelli and Nelson - Holding Onto Nothing(Radio Edit)
TTITLE12=Castaneda - Floor Control(Original Mix-Edit)
TTITLE13=MMDC-Malte and Marc de Clarg presents - No More Rain(Shane 54 Refill-Ed
TTITLE13=it)
TTITLE14=FX Brothers - Accelerator
TTITLE15=Holliver - You Can Hurt Me
TTITLE16=4 Strings - Tutn It Around(Radio Edit)
TTITLE17=Jens Jordan - Never Stop Dreaming(Radio Version)
TTITLE18=Ben Dix - In Extensio
TTITLE19=Kyau vs. Albert feat. Julie - Not With You(Original Radio Edit)
EXTD=
EXTT0=
EXTT1=
EXTT2=
EXTT3=
EXTT4=
EXTT5=
EXTT6=
EXTT7=
EXTT8=
EXTT9=
EXTT10=
EXTT11=
EXTT12=
EXTT13=
EXTT14=
EXTT15=
EXTT16=
EXTT17=
EXTT18=
EXTT19=
PLAYORDER=
